<?xml version="1.0" encoding="UTF-8" standalone="no"?>
<!-- Created with Inkscape (http://www.inkscape.org/) -->

<svg
   xmlns:dc="http://purl.org/dc/elements/1.1/"
   xmlns:cc="http://creativecommons.org/ns#"
   xmlns:rdf="http://www.w3.org/1999/02/22-rdf-syntax-ns#"
   xmlns:svg="http://www.w3.org/2000/svg"
   xmlns="http://www.w3.org/2000/svg"
   xmlns:sodipodi="http://sodipodi.sourceforge.net/DTD/sodipodi-0.dtd"
   xmlns:inkscape="http://www.inkscape.org/namespaces/inkscape"
   width="65mm"
   height="65mm"
   viewBox="0 0 65 65"
   version="1.1"
   id="svg1462"
   inkscape:version="0.92.4 5da689c313, 2019-01-14"
   sodipodi:docname="cn.svg">
  <defs
     id="defs1456" />
  <sodipodi:namedview
     id="base"
     pagecolor="#ffffff"
     bordercolor="#666666"
     borderopacity="1.0"
     inkscape:pageopacity="0.0"
     inkscape:pageshadow="2"
     inkscape:zoom="0.7"
     inkscape:cx="-0.53288051"
     inkscape:cy="250.25108"
     inkscape:document-units="mm"
     inkscape:current-layer="layer1"
     showgrid="false"
     inkscape:window-width="1920"
     inkscape:window-height="991"
     inkscape:window-x="0"
     inkscape:window-y="0"
     inkscape:window-maximized="1" />
  <metadata
     id="metadata1459">
    <rdf:RDF>
      <cc:Work
         rdf:about="">
        <dc:format>image/svg+xml</dc:format>
        <dc:type
           rdf:resource="http://purl.org/dc/dcmitype/StillImage" />
        <dc:title></dc:title>
      </cc:Work>
    </rdf:RDF>
  </metadata>
  <g
     inkscape:label="Layer 1"
     inkscape:groupmode="layer"
     id="layer1"
     transform="translate(0,-232)">
    <path
       style="fill:#646464;fill-opacity:1;stroke-width:0.1058893"
       d="m 5.2197554,240.78405 c -1.78584,0.0794 -3.21531,1.49493 -3.21531,3.25303 v 35.77505 c 0,1.71966 1.39014,3.15316 3.17862,3.24634 5.2404596,0.27532 15.8400896,1.2826 23.1655096,4.97178 1.124541,0.56651 2.457729,-0.20592 2.457729,-1.42576 V 248.0482 c 0,-0.56016 -0.277598,-1.07384 -0.76998,-1.37562 -7.118939,-4.35842 -18.652109,-5.55558 -24.4548386,-5.88595 -0.1219,-0.007 -0.24268,-0.008 -0.36173,-0.003 z m 54.5615296,0 c -0.11906,-0.005 -0.239829,-0.004 -0.361738,0.003 -5.802731,0.32931 -17.335871,1.52753 -24.455872,5.88594 -0.49132,0.30073 -0.769979,0.83564 -0.769979,1.39476 v 38.52994 c 0,1.22301 1.337249,1.99592 2.464969,1.42833 7.32541,-3.68707 17.91993,-4.69287 23.15827,-4.96816 1.788469,-0.0943 3.178619,-1.52774 3.178619,-3.24633 v -35.77404 c 0.001,-1.75809 -1.42844,-3.17367 -3.214269,-3.25302 z m -2.033989,9.52705 0.0574,23.64767 -4.24987,1.00046 -9.021669,-13.97796 0.009,16.09822 -4.203879,0.98963 v -24.21713 l 4.523239,-0.91985 8.87026,13.69116 -0.0284,-15.4895 z m -42.997891,1.69191 c 0.62938,-0.004 1.29329,0.0647 1.99161,0.20669 2.45669,0.49969 4.46371,1.74741 6.0141,3.74809 0.92622,1.1884 1.62217,2.76706 2.08721,4.73564 l -4.07003,0.24598 c -0.23868,-1.2565 -0.7392,-2.3133 -1.50069,-3.17036 -0.75064,-0.85323 -1.6642,-1.39192 -2.73988,-1.61642 -1.48086,-0.30906 -2.68158,0.053 -3.60443,1.08365 -0.9119,1.03037 -1.36952,2.91354 -1.37459,5.65237 -0.005,2.90836 0.44103,5.08275 1.341,6.52465 0.90245,1.4459 2.08075,2.33725 3.53725,2.67218 1.07781,0.24789 2.00764,0.0648 2.78846,-0.55036 0.78227,-0.61631 1.34509,-1.7396 1.68724,-3.36981 l 3.992,2.34714 c -0.61506,2.41935 -1.63868,4.08618 -3.067,5.00021 -1.4142,0.90244 -3.20438,1.09742 -5.36453,0.58912 -2.65562,-0.6249 -4.82214,-2.17902 -6.5076096,-4.65656 -1.67685,-2.47533 -2.50779,-5.50992 -2.49907,-9.11002 0.009,-3.80431 0.85718,-6.5767 2.5486796,-8.32509 1.27366,-1.32432 2.85213,-1.99443 4.74028,-2.0071 z"
       id="path5687-4-7-8"
       inkscape:connector-curvature="0" />
  </g>
</svg>
