<?xml version="1.0" encoding="UTF-8" standalone="no"?>
<!-- Created with Inkscape (http://www.inkscape.org/) -->

<svg
   xmlns:dc="http://purl.org/dc/elements/1.1/"
   xmlns:cc="http://creativecommons.org/ns#"
   xmlns:rdf="http://www.w3.org/1999/02/22-rdf-syntax-ns#"
   xmlns:svg="http://www.w3.org/2000/svg"
   xmlns="http://www.w3.org/2000/svg"
   xmlns:sodipodi="http://sodipodi.sourceforge.net/DTD/sodipodi-0.dtd"
   xmlns:inkscape="http://www.inkscape.org/namespaces/inkscape"
   width="65mm"
   height="65mm"
   viewBox="0 0 65 65"
   version="1.1"
   id="svg2651"
   inkscape:version="0.92.4 5da689c313, 2019-01-14"
   sodipodi:docname="email.svg">
  <defs
     id="defs2645" />
  <sodipodi:namedview
     id="base"
     pagecolor="#ffffff"
     bordercolor="#666666"
     borderopacity="1.0"
     inkscape:pageopacity="0.0"
     inkscape:pageshadow="2"
     inkscape:zoom="0.7"
     inkscape:cx="216.63337"
     inkscape:cy="268.93125"
     inkscape:document-units="mm"
     inkscape:current-layer="layer1"
     showgrid="false"
     inkscape:window-width="1920"
     inkscape:window-height="991"
     inkscape:window-x="0"
     inkscape:window-y="0"
     inkscape:window-maximized="1" />
  <metadata
     id="metadata2648">
    <rdf:RDF>
      <cc:Work
         rdf:about="">
        <dc:format>image/svg+xml</dc:format>
        <dc:type
           rdf:resource="http://purl.org/dc/dcmitype/StillImage" />
        <dc:title></dc:title>
      </cc:Work>
    </rdf:RDF>
  </metadata>
  <g
     inkscape:label="Layer 1"
     inkscape:groupmode="layer"
     id="layer1"
     transform="translate(0,-232)">
    <g
       transform="matrix(0.03034147,0,0,-0.03034147,5.3140429,281.97669)"
       id="g4"
       style="fill:#646464;fill-opacity:1">
      <path
         d="M 1792,826 V 32 q 0,-66 -47,-113 -47,-47 -113,-47 H 160 Q 94,-128 47,-81 0,-34 0,32 V 826 Q 44,777 101,739 463,493 598,394 655,352 690.5,328.5 726,305 785,280.5 844,256 895,256 h 1 1 q 51,0 110,24.5 59,24.5 94.5,48 35.5,23.5 92.5,65.5 170,123 498,345 57,39 100,87 z m 0,294 q 0,-79 -49,-151 -49,-72 -122,-123 -376,-261 -468,-325 -10,-7 -42.5,-30.5 -32.5,-23.5 -54,-38 Q 1035,438 1004.5,420 974,402 947,393 q -27,-9 -50,-9 h -1 -1 q -23,0 -50,9 -27,9 -57.5,27 -30.5,18 -52,32.5 -21.5,14.5 -54,38 Q 649,514 639,521 548,585 377,703.5 206,822 172,846 110,888 55,961.5 0,1035 0,1098 q 0,78 41.5,130 41.5,52 118.5,52 h 1472 q 65,0 112.5,-47 47.5,-47 47.5,-113 z"
         id="path6"
         inkscape:connector-curvature="0"
         style="fill:#646464;fill-opacity:1" />
    </g>
  </g>
</svg>
